<?xml version="1.0" encoding="utf-8" standalone="no"?>
<!DOCTYPE svg PUBLIC "-//W3C//DTD SVG 1.1//EN"
  "http://www.w3.org/Graphics/SVG/1.1/DTD/svg11.dtd">
<svg xmlns:xlink="http://www.w3.org/1999/xlink" width="460.8pt" height="288pt" viewBox="0 0 460.8 288" xmlns="http://www.w3.org/2000/svg" version="1.1">
 <metadata>
  <rdf:RDF xmlns:dc="http://purl.org/dc/elements/1.1/" xmlns:cc="http://creativecommons.org/ns#" xmlns:rdf="http://www.w3.org/1999/02/22-rdf-syntax-ns#">
   <cc:Work>
    <dc:type rdf:resource="http://purl.org/dc/dcmitype/StillImage"/>
    <dc:format>image/svg+xml</dc:format>
   </cc:Work>
  </rdf:RDF>
 </metadata>
 <defs>
  <style type="text/css">*{stroke-linejoin: round; stroke-linecap: butt}</style>
 </defs>
 <g id="figure_1">
  <g id="patch_1">
   <path d="M 0 288 
L 460.8 288 
L 460.8 0 
L 0 0 
z
" style="fill: #ffffff"/>
  </g>
  <g id="axes_1">
   <g id="patch_2">
    <path d="M 47.962344 245.877656 
L 450 245.877656 
L 450 26.16 
L 47.962344 26.16 
z
" style="fill: #ffffff"/>
   </g>
   <g id="matplotlib.axis_1">
    <g id="xtick_1">
     <g id="line2d_1">
      <defs>
       <path id="m52156c9e05" d="M 0 0 
L 0 3.5 
" style="stroke: #000000; stroke-width: 0.8"/>
      </defs>
      <g>
       <use xlink:href="#m52156c9e05" x="66.236783" y="245.877656" style="stroke: #000000; stroke-width: 0.8"/>
      </g>
     </g>
     <g id="text_1">
      <!-- 1 -->
      <g transform="translate(63.055533 260.475312) scale(0.1 -0.1)">
       <defs>
        <path id="DejaVuSans-14" d="M 794 531 
L 1825 531 
L 1825 4091 
L 703 3866 
L 703 4441 
L 1819 4666 
L 2450 4666 
L 2450 531 
L 3481 531 
L 3481 0 
L 794 0 
L 794 531 
z
" transform="scale(0.015625)"/>
       </defs>
       <use xlink:href="#DejaVuSans-14"/>
      </g>
     </g>
    </g>
    <g id="xtick_2">
     <g id="line2d_2">
      <g>
       <use xlink:href="#m52156c9e05" x="106.846647" y="245.877656" style="stroke: #000000; stroke-width: 0.8"/>
      </g>
     </g>
     <g id="text_2">
      <!-- 2 -->
      <g transform="translate(103.665397 260.475312) scale(0.1 -0.1)">
       <defs>
        <path id="DejaVuSans-15" d="M 1228 531 
L 3431 531 
L 3431 0 
L 469 0 
L 469 531 
Q 828 903 1448 1529 
Q 2069 2156 2228 2338 
Q 2531 2678 2651 2914 
Q 2772 3150 2772 3378 
Q 2772 3750 2511 3984 
Q 2250 4219 1831 4219 
Q 1534 4219 1204 4116 
Q 875 4013 500 3803 
L 500 4441 
Q 881 4594 1212 4672 
Q 1544 4750 1819 4750 
Q 2544 4750 2975 4387 
Q 3406 4025 3406 3419 
Q 3406 3131 3298 2873 
Q 3191 2616 2906 2266 
Q 2828 2175 2409 1742 
Q 1991 1309 1228 531 
z
" transform="scale(0.015625)"/>
       </defs>
       <use xlink:href="#DejaVuSans-15"/>
      </g>
     </g>
    </g>
    <g id="xtick_3">
     <g id="line2d_3">
      <g>
       <use xlink:href="#m52156c9e05" x="147.456511" y="245.877656" style="stroke: #000000; stroke-width: 0.8"/>
      </g>
     </g>
     <g id="text_3">
      <!-- 3 -->
      <g transform="translate(144.275261 260.475312) scale(0.1 -0.1)">
       <defs>
        <path id="DejaVuSans-16" d="M 2597 2516 
Q 3050 2419 3304 2112 
Q 3559 1806 3559 1356 
Q 3559 666 3084 287 
Q 2609 -91 1734 -91 
Q 1441 -91 1130 -33 
Q 819 25 488 141 
L 488 750 
Q 750 597 1062 519 
Q 1375 441 1716 441 
Q 2309 441 2620 675 
Q 2931 909 2931 1356 
Q 2931 1769 2642 2001 
Q 2353 2234 1838 2234 
L 1294 2234 
L 1294 2753 
L 1863 2753 
Q 2328 2753 2575 2939 
Q 2822 3125 2822 3475 
Q 2822 3834 2567 4026 
Q 2313 4219 1838 4219 
Q 1578 4219 1281 4162 
Q 984 4106 628 3988 
L 628 4550 
Q 988 4650 1302 4700 
Q 1616 4750 1894 4750 
Q 2613 4750 3031 4423 
Q 3450 4097 3450 3541 
Q 3450 3153 3228 2886 
Q 3006 2619 2597 2516 
z
" transform="scale(0.015625)"/>
       </defs>
       <use xlink:href="#DejaVuSans-16"/>
      </g>
     </g>
    </g>
    <g id="xtick_4">
     <g id="line2d_4">
      <g>
       <use xlink:href="#m52156c9e05" x="188.066375" y="245.877656" style="stroke: #000000; stroke-width: 0.8"/>
      </g>
     </g>
     <g id="text_4">
      <!-- 4 -->
      <g transform="translate(184.885125 260.475312) scale(0.1 -0.1)">
       <defs>
        <path id="DejaVuSans-17" d="M 2419 4116 
L 825 1625 
L 2419 1625 
L 2419 4116 
z
M 2253 4666 
L 3047 4666 
L 3047 1625 
L 3713 1625 
L 3713 1100 
L 3047 1100 
L 3047 0 
L 2419 0 
L 2419 1100 
L 313 1100 
L 313 1709 
L 2253 4666 
z
" transform="scale(0.015625)"/>
       </defs>
       <use xlink:href="#DejaVuSans-17"/>
      </g>
     </g>
    </g>
    <g id="xtick_5">
     <g id="line2d_5">
      <g>
       <use xlink:href="#m52156c9e05" x="228.67624" y="245.877656" style="stroke: #000000; stroke-width: 0.8"/>
      </g>
     </g>
     <g id="text_5">
      <!-- 5 -->
      <g transform="translate(225.49499 260.475312) scale(0.1 -0.1)">
       <defs>
        <path id="DejaVuSans-18" d="M 691 4666 
L 3169 4666 
L 3169 4134 
L 1269 4134 
L 1269 2991 
Q 1406 3038 1543 3061 
Q 1681 3084 1819 3084 
Q 2600 3084 3056 2656 
Q 3513 2228 3513 1497 
Q 3513 744 3044 326 
Q 2575 -91 1722 -91 
Q 1428 -91 1123 -41 
Q 819 9 494 109 
L 494 744 
Q 775 591 1075 516 
Q 1375 441 1709 441 
Q 2250 441 2565 725 
Q 2881 1009 2881 1497 
Q 2881 1984 2565 2268 
Q 2250 2553 1709 2553 
Q 1456 2553 1204 2497 
Q 953 2441 691 2322 
L 691 4666 
z
" transform="scale(0.015625)"/>
       </defs>
       <use xlink:href="#DejaVuSans-18"/>
      </g>
     </g>
    </g>
    <g id="xtick_6">
     <g id="line2d_6">
      <g>
       <use xlink:href="#m52156c9e05" x="269.286104" y="245.877656" style="stroke: #000000; stroke-width: 0.8"/>
      </g>
     </g>
     <g id="text_6">
      <!-- 6 -->
      <g transform="translate(266.104854 260.475312) scale(0.1 -0.1)">
       <defs>
        <path id="DejaVuSans-19" d="M 2113 2584 
Q 1688 2584 1439 2293 
Q 1191 2003 1191 1497 
Q 1191 994 1439 701 
Q 1688 409 2113 409 
Q 2538 409 2786 701 
Q 3034 994 3034 1497 
Q 3034 2003 2786 2293 
Q 2538 2584 2113 2584 
z
M 3366 4563 
L 3366 3988 
Q 3128 4100 2886 4159 
Q 2644 4219 2406 4219 
Q 1781 4219 1451 3797 
Q 1122 3375 1075 2522 
Q 1259 2794 1537 2939 
Q 1816 3084 2150 3084 
Q 2853 3084 3261 2657 
Q 3669 2231 3669 1497 
Q 3669 778 3244 343 
Q 2819 -91 2113 -91 
Q 1303 -91 875 529 
Q 447 1150 447 2328 
Q 447 3434 972 4092 
Q 1497 4750 2381 4750 
Q 2619 4750 2861 4703 
Q 3103 4656 3366 4563 
z
" transform="scale(0.015625)"/>
       </defs>
       <use xlink:href="#DejaVuSans-19"/>
      </g>
     </g>
    </g>
    <g id="xtick_7">
     <g id="line2d_7">
      <g>
       <use xlink:href="#m52156c9e05" x="309.895968" y="245.877656" style="stroke: #000000; stroke-width: 0.8"/>
      </g>
     </g>
     <g id="text_7">
      <!-- 7 -->
      <g transform="translate(306.714718 260.475312) scale(0.1 -0.1)">
       <defs>
        <path id="DejaVuSans-1a" d="M 525 4666 
L 3525 4666 
L 3525 4397 
L 1831 0 
L 1172 0 
L 2766 4134 
L 525 4134 
L 525 4666 
z
" transform="scale(0.015625)"/>
       </defs>
       <use xlink:href="#DejaVuSans-1a"/>
      </g>
     </g>
    </g>
    <g id="xtick_8">
     <g id="line2d_8">
      <g>
       <use xlink:href="#m52156c9e05" x="350.505833" y="245.877656" style="stroke: #000000; stroke-width: 0.8"/>
      </g>
     </g>
     <g id="text_8">
      <!-- 8 -->
      <g transform="translate(347.324583 260.475312) scale(0.1 -0.1)">
       <defs>
        <path id="DejaVuSans-1b" d="M 2034 2216 
Q 1584 2216 1326 1975 
Q 1069 1734 1069 1313 
Q 1069 891 1326 650 
Q 1584 409 2034 409 
Q 2484 409 2743 651 
Q 3003 894 3003 1313 
Q 3003 1734 2745 1975 
Q 2488 2216 2034 2216 
z
M 1403 2484 
Q 997 2584 770 2862 
Q 544 3141 544 3541 
Q 544 4100 942 4425 
Q 1341 4750 2034 4750 
Q 2731 4750 3128 4425 
Q 3525 4100 3525 3541 
Q 3525 3141 3298 2862 
Q 3072 2584 2669 2484 
Q 3125 2378 3379 2068 
Q 3634 1759 3634 1313 
Q 3634 634 3220 271 
Q 2806 -91 2034 -91 
Q 1263 -91 848 271 
Q 434 634 434 1313 
Q 434 1759 690 2068 
Q 947 2378 1403 2484 
z
M 1172 3481 
Q 1172 3119 1398 2916 
Q 1625 2713 2034 2713 
Q 2441 2713 2670 2916 
Q 2900 3119 2900 3481 
Q 2900 3844 2670 4047 
Q 2441 4250 2034 4250 
Q 1625 4250 1398 4047 
Q 1172 3844 1172 3481 
z
" transform="scale(0.015625)"/>
       </defs>
       <use xlink:href="#DejaVuSans-1b"/>
      </g>
     </g>
    </g>
    <g id="xtick_9">
     <g id="line2d_9">
      <g>
       <use xlink:href="#m52156c9e05" x="391.115697" y="245.877656" style="stroke: #000000; stroke-width: 0.8"/>
      </g>
     </g>
     <g id="text_9">
      <!-- 9 -->
      <g transform="translate(387.934447 260.475312) scale(0.1 -0.1)">
       <defs>
        <path id="DejaVuSans-1c" d="M 703 97 
L 703 672 
Q 941 559 1184 500 
Q 1428 441 1663 441 
Q 2288 441 2617 861 
Q 2947 1281 2994 2138 
Q 2813 1869 2534 1725 
Q 2256 1581 1919 1581 
Q 1219 1581 811 2004 
Q 403 2428 403 3163 
Q 403 3881 828 4315 
Q 1253 4750 1959 4750 
Q 2769 4750 3195 4129 
Q 3622 3509 3622 2328 
Q 3622 1225 3098 567 
Q 2575 -91 1691 -91 
Q 1453 -91 1209 -44 
Q 966 3 703 97 
z
M 1959 2075 
Q 2384 2075 2632 2365 
Q 2881 2656 2881 3163 
Q 2881 3666 2632 3958 
Q 2384 4250 1959 4250 
Q 1534 4250 1286 3958 
Q 1038 3666 1038 3163 
Q 1038 2656 1286 2365 
Q 1534 2075 1959 2075 
z
" transform="scale(0.015625)"/>
       </defs>
       <use xlink:href="#DejaVuSans-1c"/>
      </g>
     </g>
    </g>
    <g id="xtick_10">
     <g id="line2d_10">
      <g>
       <use xlink:href="#m52156c9e05" x="431.725561" y="245.877656" style="stroke: #000000; stroke-width: 0.8"/>
      </g>
     </g>
     <g id="text_10">
      <!-- 10 -->
      <g transform="translate(425.363061 260.475312) scale(0.1 -0.1)">
       <defs>
        <path id="DejaVuSans-13" d="M 2034 4250 
Q 1547 4250 1301 3770 
Q 1056 3291 1056 2328 
Q 1056 1369 1301 889 
Q 1547 409 2034 409 
Q 2525 409 2770 889 
Q 3016 1369 3016 2328 
Q 3016 3291 2770 3770 
Q 2525 4250 2034 4250 
z
M 2034 4750 
Q 2819 4750 3233 4129 
Q 3647 3509 3647 2328 
Q 3647 1150 3233 529 
Q 2819 -91 2034 -91 
Q 1250 -91 836 529 
Q 422 1150 422 2328 
Q 422 3509 836 4129 
Q 1250 4750 2034 4750 
z
" transform="scale(0.015625)"/>
       </defs>
       <use xlink:href="#DejaVuSans-14"/>
       <use xlink:href="#DejaVuSans-13" transform="translate(63.625 0)"/>
      </g>
     </g>
    </g>
    <g id="text_11">
     <!-- m (shortlist size) -->
     <g transform="translate(207.145234 274.476094) scale(0.1 -0.1)">
      <defs>
       <path id="DejaVuSans-50" d="M 3328 2828 
Q 3544 3216 3844 3400 
Q 4144 3584 4550 3584 
Q 5097 3584 5394 3201 
Q 5691 2819 5691 2113 
L 5691 0 
L 5113 0 
L 5113 2094 
Q 5113 2597 4934 2840 
Q 4756 3084 4391 3084 
Q 3944 3084 3684 2787 
Q 3425 2491 3425 1978 
L 3425 0 
L 2847 0 
L 2847 2094 
Q 2847 2600 2669 2842 
Q 2491 3084 2119 3084 
Q 1678 3084 1418 2786 
Q 1159 2488 1159 1978 
L 1159 0 
L 581 0 
L 581 3500 
L 1159 3500 
L 1159 2956 
Q 1356 3278 1631 3431 
Q 1906 3584 2284 3584 
Q 2666 3584 2933 3390 
Q 3200 3197 3328 2828 
z
" transform="scale(0.015625)"/>
       <path id="DejaVuSans-3" transform="scale(0.015625)"/>
       <path id="DejaVuSans-b" d="M 1984 4856 
Q 1566 4138 1362 3434 
Q 1159 2731 1159 2009 
Q 1159 1288 1364 580 
Q 1569 -128 1984 -844 
L 1484 -844 
Q 1016 -109 783 600 
Q 550 1309 550 2009 
Q 550 2706 781 3412 
Q 1013 4119 1484 4856 
L 1984 4856 
z
" transform="scale(0.015625)"/>
       <path id="DejaVuSans-56" d="M 2834 3397 
L 2834 2853 
Q 2591 2978 2328 3040 
Q 2066 3103 1784 3103 
Q 1356 3103 1142 2972 
Q 928 2841 928 2578 
Q 928 2378 1081 2264 
Q 1234 2150 1697 2047 
L 1894 2003 
Q 2506 1872 2764 1633 
Q 3022 1394 3022 966 
Q 3022 478 2636 193 
Q 2250 -91 1575 -91 
Q 1294 -91 989 -36 
Q 684 19 347 128 
L 347 722 
Q 666 556 975 473 
Q 1284 391 1588 391 
Q 1994 391 2212 530 
Q 2431 669 2431 922 
Q 2431 1156 2273 1281 
Q 2116 1406 1581 1522 
L 1381 1569 
Q 847 1681 609 1914 
Q 372 2147 372 2553 
Q 372 3047 722 3315 
Q 1072 3584 1716 3584 
Q 2034 3584 2315 3537 
Q 2597 3491 2834 3397 
z
" transform="scale(0.015625)"/>
       <path id="DejaVuSans-4b" d="M 3513 2113 
L 3513 0 
L 2938 0 
L 2938 2094 
Q 2938 2591 2744 2837 
Q 2550 3084 2163 3084 
Q 1697 3084 1428 2787 
Q 1159 2491 1159 1978 
L 1159 0 
L 581 0 
L 581 4863 
L 1159 4863 
L 1159 2956 
Q 1366 3272 1645 3428 
Q 1925 3584 2291 3584 
Q 2894 3584 3203 3211 
Q 3513 2838 3513 2113 
z
" transform="scale(0.015625)"/>
       <path id="DejaVuSans-52" d="M 1959 3097 
Q 1497 3097 1228 2736 
Q 959 2375 959 1747 
Q 959 1119 1226 758 
Q 1494 397 1959 397 
Q 2419 397 2687 759 
Q 2956 1122 2956 1747 
Q 2956 2369 2687 2733 
Q 2419 3097 1959 3097 
z
M 1959 3584 
Q 2709 3584 3137 3096 
Q 3566 2609 3566 1747 
Q 3566 888 3137 398 
Q 2709 -91 1959 -91 
Q 1206 -91 779 398 
Q 353 888 353 1747 
Q 353 2609 779 3096 
Q 1206 3584 1959 3584 
z
" transform="scale(0.015625)"/>
       <path id="DejaVuSans-55" d="M 2631 2963 
Q 2534 3019 2420 3045 
Q 2306 3072 2169 3072 
Q 1681 3072 1420 2755 
Q 1159 2438 1159 1844 
L 1159 0 
L 581 0 
L 581 3500 
L 1159 3500 
L 1159 2956 
Q 1341 3275 1631 3429 
Q 1922 3584 2338 3584 
Q 2397 3584 2469 3576 
Q 2541 3569 2628 3553 
L 2631 2963 
z
" transform="scale(0.015625)"/>
       <path id="DejaVuSans-57" d="M 1172 4494 
L 1172 3500 
L 2356 3500 
L 2356 3053 
L 1172 3053 
L 1172 1153 
Q 1172 725 1289 603 
Q 1406 481 1766 481 
L 2356 481 
L 2356 0 
L 1766 0 
Q 1100 0 847 248 
Q 594 497 594 1153 
L 594 3053 
L 172 3053 
L 172 3500 
L 594 3500 
L 594 4494 
L 1172 4494 
z
" transform="scale(0.015625)"/>
       <path id="DejaVuSans-4f" d="M 603 4863 
L 1178 4863 
L 1178 0 
L 603 0 
L 603 4863 
z
" transform="scale(0.015625)"/>
       <path id="DejaVuSans-4c" d="M 603 3500 
L 1178 3500 
L 1178 0 
L 603 0 
L 603 3500 
z
M 603 4863 
L 1178 4863 
L 1178 4134 
L 603 4134 
L 603 4863 
z
" transform="scale(0.015625)"/>
       <path id="DejaVuSans-5d" d="M 353 3500 
L 3084 3500 
L 3084 2975 
L 922 459 
L 3084 459 
L 3084 0 
L 275 0 
L 275 525 
L 2438 3041 
L 353 3041 
L 353 3500 
z
" transform="scale(0.015625)"/>
       <path id="DejaVuSans-48" d="M 3597 1894 
L 3597 1613 
L 953 1613 
Q 991 1019 1311 708 
Q 1631 397 2203 397 
Q 2534 397 2845 478 
Q 3156 559 3463 722 
L 3463 178 
Q 3153 47 2828 -22 
Q 2503 -91 2169 -91 
Q 1331 -91 842 396 
Q 353 884 353 1716 
Q 353 2575 817 3079 
Q 1281 3584 2069 3584 
Q 2775 3584 3186 3129 
Q 3597 2675 3597 1894 
z
M 3022 2063 
Q 3016 2534 2758 2815 
Q 2500 3097 2075 3097 
Q 1594 3097 1305 2825 
Q 1016 2553 972 2059 
L 3022 2063 
z
" transform="scale(0.015625)"/>
       <path id="DejaVuSans-c" d="M 513 4856 
L 1013 4856 
Q 1481 4119 1714 3412 
Q 1947 2706 1947 2009 
Q 1947 1309 1714 600 
Q 1481 -109 1013 -844 
L 513 -844 
Q 928 -128 1133 580 
Q 1338 1288 1338 2009 
Q 1338 2731 1133 3434 
Q 928 4138 513 4856 
z
" transform="scale(0.015625)"/>
      </defs>
      <use xlink:href="#DejaVuSans-50"/>
      <use xlink:href="#DejaVuSans-3" transform="translate(97.40625 0)"/>
      <use xlink:href="#DejaVuSans-b" transform="translate(129.1875 0)"/>
      <use xlink:href="#DejaVuSans-56" transform="translate(168.203125 0)"/>
      <use xlink:href="#DejaVuSans-4b" transform="translate(220.296875 0)"/>
      <use xlink:href="#DejaVuSans-52" transform="translate(283.671875 0)"/>
      <use xlink:href="#DejaVuSans-55" transform="translate(344.859375 0)"/>
      <use xlink:href="#DejaVuSans-57" transform="translate(385.96875 0)"/>
      <use xlink:href="#DejaVuSans-4f" transform="translate(425.171875 0)"/>
      <use xlink:href="#DejaVuSans-4c" transform="translate(452.953125 0)"/>
      <use xlink:href="#DejaVuSans-56" transform="translate(480.734375 0)"/>
      <use xlink:href="#DejaVuSans-57" transform="translate(532.828125 0)"/>
      <use xlink:href="#DejaVuSans-3" transform="translate(572.03125 0)"/>
      <use xlink:href="#DejaVuSans-56" transform="translate(603.8125 0)"/>
      <use xlink:href="#DejaVuSans-4c" transform="translate(655.90625 0)"/>
      <use xlink:href="#DejaVuSans-5d" transform="translate(683.6875 0)"/>
      <use xlink:href="#DejaVuSans-48" transform="translate(736.171875 0)"/>
      <use xlink:href="#DejaVuSans-c" transform="translate(797.703125 0)"/>
     </g>
    </g>
   </g>
   <g id="matplotlib.axis_2">
    <g id="ytick_1">
     <g id="line2d_11">
      <defs>
       <path id="m63716fd717" d="M 0 0 
L -3.5 0 
" style="stroke: #000000; stroke-width: 0.8"/>
      </defs>
      <g>
       <use xlink:href="#m63716fd717" x="47.962344" y="245.877656" style="stroke: #000000; stroke-width: 0.8"/>
      </g>
     </g>
     <g id="text_12">
      <!-- 0.0 -->
      <g transform="translate(25.059219 249.676484) scale(0.1 -0.1)">
       <defs>
        <path id="DejaVuSans-11" d="M 684 794 
L 1344 794 
L 1344 0 
L 684 0 
L 684 794 
z
" transform="scale(0.015625)"/>
       </defs>
       <use xlink:href="#DejaVuSans-13"/>
       <use xlink:href="#DejaVuSans-11" transform="translate(63.625 0)"/>
       <use xlink:href="#DejaVuSans-13" transform="translate(95.40625 0)"/>
      </g>
     </g>
    </g>
    <g id="ytick_2">
     <g id="line2d_12">
      <g>
       <use xlink:href="#m63716fd717" x="47.962344" y="204.026674" style="stroke: #000000; stroke-width: 0.8"/>
      </g>
     </g>
     <g id="text_13">
      <!-- 0.2 -->
      <g transform="translate(25.059219 207.825502) scale(0.1 -0.1)">
       <use xlink:href="#DejaVuSans-13"/>
       <use xlink:href="#DejaVuSans-11" transform="translate(63.625 0)"/>
       <use xlink:href="#DejaVuSans-15" transform="translate(95.40625 0)"/>
      </g>
     </g>
    </g>
    <g id="ytick_3">
     <g id="line2d_13">
      <g>
       <use xlink:href="#m63716fd717" x="47.962344" y="162.175692" style="stroke: #000000; stroke-width: 0.8"/>
      </g>
     </g>
     <g id="text_14">
      <!-- 0.4 -->
      <g transform="translate(25.059219 165.97452) scale(0.1 -0.1)">
       <use xlink:href="#DejaVuSans-13"/>
       <use xlink:href="#DejaVuSans-11" transform="translate(63.625 0)"/>
       <use xlink:href="#DejaVuSans-17" transform="translate(95.40625 0)"/>
      </g>
     </g>
    </g>
    <g id="ytick_4">
     <g id="line2d_14">
      <g>
       <use xlink:href="#m63716fd717" x="47.962344" y="120.32471" style="stroke: #000000; stroke-width: 0.8"/>
      </g>
     </g>
     <g id="text_15">
      <!-- 0.6 -->
      <g transform="translate(25.059219 124.123538) scale(0.1 -0.1)">
       <use xlink:href="#DejaVuSans-13"/>
       <use xlink:href="#DejaVuSans-11" transform="translate(63.625 0)"/>
       <use xlink:href="#DejaVuSans-19" transform="translate(95.40625 0)"/>
      </g>
     </g>
    </g>
    <g id="ytick_5">
     <g id="line2d_15">
      <g>
       <use xlink:href="#m63716fd717" x="47.962344" y="78.473728" style="stroke: #000000; stroke-width: 0.8"/>
      </g>
     </g>
     <g id="text_16">
      <!-- 0.8 -->
      <g transform="translate(25.059219 82.272556) scale(0.1 -0.1)">
       <use xlink:href="#DejaVuSans-13"/>
       <use xlink:href="#DejaVuSans-11" transform="translate(63.625 0)"/>
       <use xlink:href="#DejaVuSans-1b" transform="translate(95.40625 0)"/>
      </g>
     </g>
    </g>
    <g id="ytick_6">
     <g id="line2d_16">
      <g>
       <use xlink:href="#m63716fd717" x="47.962344" y="36.622746" style="stroke: #000000; stroke-width: 0.8"/>
      </g>
     </g>
     <g id="text_17">
      <!-- 1.0 -->
      <g transform="translate(25.059219 40.421574) scale(0.1 -0.1)">
       <use xlink:href="#DejaVuSans-14"/>
       <use xlink:href="#DejaVuSans-11" transform="translate(63.625 0)"/>
       <use xlink:href="#DejaVuSans-13" transform="translate(95.40625 0)"/>
      </g>
     </g>
    </g>
    <g id="text_18">
     <!-- recall@m -->
     <g transform="translate(18.656875 159.502422) rotate(-90) scale(0.1 -0.1)">
      <defs>
       <path id="DejaVuSans-46" d="M 3122 3366 
L 3122 2828 
Q 2878 2963 2633 3030 
Q 2388 3097 2138 3097 
Q 1578 3097 1268 2742 
Q 959 2388 959 1747 
Q 959 1106 1268 751 
Q 1578 397 2138 397 
Q 2388 397 2633 464 
Q 2878 531 3122 666 
L 3122 134 
Q 2881 22 2623 -34 
Q 2366 -91 2075 -91 
Q 1284 -91 818 406 
Q 353 903 353 1747 
Q 353 2603 823 3093 
Q 1294 3584 2113 3584 
Q 2378 3584 2631 3529 
Q 2884 3475 3122 3366 
z
" transform="scale(0.015625)"/>
       <path id="DejaVuSans-44" d="M 2194 1759 
Q 1497 1759 1228 1600 
Q 959 1441 959 1056 
Q 959 750 1161 570 
Q 1363 391 1709 391 
Q 2188 391 2477 730 
Q 2766 1069 2766 1631 
L 2766 1759 
L 2194 1759 
z
M 3341 1997 
L 3341 0 
L 2766 0 
L 2766 531 
Q 2569 213 2275 61 
Q 1981 -91 1556 -91 
Q 1019 -91 701 211 
Q 384 513 384 1019 
Q 384 1609 779 1909 
Q 1175 2209 1959 2209 
L 2766 2209 
L 2766 2266 
Q 2766 2663 2505 2880 
Q 2244 3097 1772 3097 
Q 1472 3097 1187 3025 
Q 903 2953 641 2809 
L 641 3341 
Q 956 3463 1253 3523 
Q 1550 3584 1831 3584 
Q 2591 3584 2966 3190 
Q 3341 2797 3341 1997 
z
" transform="scale(0.015625)"/>
       <path id="DejaVuSans-23" d="M 2381 1678 
Q 2381 1231 2603 976 
Q 2825 722 3213 722 
Q 3597 722 3817 978 
Q 4038 1234 4038 1678 
Q 4038 2116 3813 2373 
Q 3588 2631 3206 2631 
Q 2828 2631 2604 2375 
Q 2381 2119 2381 1678 
z
M 4084 744 
Q 3897 503 3655 389 
Q 3413 275 3091 275 
Q 2553 275 2217 664 
Q 1881 1053 1881 1678 
Q 1881 2303 2218 2693 
Q 2556 3084 3091 3084 
Q 3413 3084 3656 2967 
Q 3900 2850 4084 2613 
L 4084 3022 
L 4531 3022 
L 4531 722 
Q 4988 791 5245 1139 
Q 5503 1488 5503 2041 
Q 5503 2375 5404 2669 
Q 5306 2963 5106 3213 
Q 4781 3622 4314 3839 
Q 3847 4056 3297 4056 
Q 2913 4056 2559 3954 
Q 2206 3853 1906 3653 
Q 1416 3334 1139 2817 
Q 863 2300 863 1697 
Q 863 1200 1042 765 
Q 1222 331 1563 0 
Q 1891 -325 2322 -495 
Q 2753 -666 3244 -666 
Q 3647 -666 4036 -530 
Q 4425 -394 4750 -141 
L 5031 -488 
Q 4641 -791 4180 -952 
Q 3719 -1113 3244 -1113 
Q 2666 -1113 2153 -908 
Q 1641 -703 1241 -313 
Q 841 78 631 592 
Q 422 1106 422 1697 
Q 422 2266 634 2781 
Q 847 3297 1241 3688 
Q 1644 4084 2172 4295 
Q 2700 4506 3291 4506 
Q 3953 4506 4520 4234 
Q 5088 3963 5472 3463 
Q 5706 3156 5829 2797 
Q 5953 2438 5953 2053 
Q 5953 1231 5456 756 
Q 4959 281 4084 263 
L 4084 744 
z
" transform="scale(0.015625)"/>
      </defs>
      <use xlink:href="#DejaVuSans-55"/>
      <use xlink:href="#DejaVuSans-48" transform="translate(38.90625 0)"/>
      <use xlink:href="#DejaVuSans-46" transform="translate(100.4375 0)"/>
      <use xlink:href="#DejaVuSans-44" transform="translate(155.421875 0)"/>
      <use xlink:href="#DejaVuSans-4f" transform="translate(216.703125 0)"/>
      <use xlink:href="#DejaVuSans-4f" transform="translate(244.484375 0)"/>
      <use xlink:href="#DejaVuSans-23" transform="translate(272.265625 0)"/>
      <use xlink:href="#DejaVuSans-50" transform="translate(372.265625 0)"/>
     </g>
    </g>
   </g>
   <g id="line2d_17">
    <path d="M 66.236783 176.126019 
L 106.846647 141.250201 
L 147.456511 141.250201 
" clip-path="url(#p44c43e86bb)" style="fill: none; stroke: #d08a12; stroke-width: 1.5; stroke-linecap: square"/>
    <defs>
     <path id="mcbb0d20c68" d="M 0 3 
C 0.795609 3 1.55874 2.683901 2.12132 2.12132 
C 2.683901 1.55874 3 0.795609 3 0 
C 3 -0.795609 2.683901 -1.55874 2.12132 -2.12132 
C 1.55874 -2.683901 0.795609 -3 0 -3 
C -0.795609 -3 -1.55874 -2.683901 -2.12132 -2.12132 
C -2.683901 -1.55874 -3 -0.795609 -3 0 
C -3 0.795609 -2.683901 1.55874 -2.12132 2.12132 
C -1.55874 2.683901 -0.795609 3 0 3 
z
" style="stroke: #d08a12"/>
    </defs>
    <g clip-path="url(#p44c43e86bb)">
     <use xlink:href="#mcbb0d20c68" x="66.236783" y="176.126019" style="fill: #d08a12; stroke: #d08a12"/>
     <use xlink:href="#mcbb0d20c68" x="106.846647" y="141.250201" style="fill: #d08a12; stroke: #d08a12"/>
     <use xlink:href="#mcbb0d20c68" x="147.456511" y="141.250201" style="fill: #d08a12; stroke: #d08a12"/>
    </g>
   </g>
   <g id="line2d_18">
    <path d="M 147.456511 141.250201 
L 188.066375 141.250201 
L 228.67624 141.250201 
L 269.286104 141.250201 
L 309.895968 141.250201 
L 350.505833 141.250201 
L 391.115697 141.250201 
L 431.725561 141.250201 
" clip-path="url(#p44c43e86bb)" style="fill: none; stroke-dasharray: 5.55,2.4; stroke-dashoffset: 0; stroke: #d08a12; stroke-opacity: 0.6; stroke-width: 1.5"/>
    <defs>
     <path id="m3c525a8180" d="M 0 3 
C 0.795609 3 1.55874 2.683901 2.12132 2.12132 
C 2.683901 1.55874 3 0.795609 3 0 
C 3 -0.795609 2.683901 -1.55874 2.12132 -2.12132 
C 1.55874 -2.683901 0.795609 -3 0 -3 
C -0.795609 -3 -1.55874 -2.683901 -2.12132 -2.12132 
C -2.683901 -1.55874 -3 -0.795609 -3 0 
C -3 0.795609 -2.683901 1.55874 -2.12132 2.12132 
C -1.55874 2.683901 -0.795609 3 0 3 
z
" style="stroke: #d08a12; stroke-opacity: 0.6"/>
    </defs>
    <g clip-path="url(#p44c43e86bb)">
     <use xlink:href="#m3c525a8180" x="147.456511" y="141.250201" style="fill: #d08a12; fill-opacity: 0.6; stroke: #d08a12; stroke-opacity: 0.6"/>
     <use xlink:href="#m3c525a8180" x="188.066375" y="141.250201" style="fill: #d08a12; fill-opacity: 0.6; stroke: #d08a12; stroke-opacity: 0.6"/>
     <use xlink:href="#m3c525a8180" x="228.67624" y="141.250201" style="fill: #d08a12; fill-opacity: 0.6; stroke: #d08a12; stroke-opacity: 0.6"/>
     <use xlink:href="#m3c525a8180" x="269.286104" y="141.250201" style="fill: #d08a12; fill-opacity: 0.6; stroke: #d08a12; stroke-opacity: 0.6"/>
     <use xlink:href="#m3c525a8180" x="309.895968" y="141.250201" style="fill: #d08a12; fill-opacity: 0.6; stroke: #d08a12; stroke-opacity: 0.6"/>
     <use xlink:href="#m3c525a8180" x="350.505833" y="141.250201" style="fill: #d08a12; fill-opacity: 0.6; stroke: #d08a12; stroke-opacity: 0.6"/>
     <use xlink:href="#m3c525a8180" x="391.115697" y="141.250201" style="fill: #d08a12; fill-opacity: 0.6; stroke: #d08a12; stroke-opacity: 0.6"/>
     <use xlink:href="#m3c525a8180" x="431.725561" y="141.250201" style="fill: #d08a12; fill-opacity: 0.6; stroke: #d08a12; stroke-opacity: 0.6"/>
    </g>
   </g>
   <g id="line2d_19">
    <path d="M 66.236783 176.126019 
L 106.846647 141.250201 
L 147.456511 141.250201 
" clip-path="url(#p44c43e86bb)" style="fill: none; stroke: #8b6ee8; stroke-width: 1.5; stroke-linecap: square"/>
    <defs>
     <path id="m3499cf21ec" d="M 0 3 
C 0.795609 3 1.55874 2.683901 2.12132 2.12132 
C 2.683901 1.55874 3 0.795609 3 0 
C 3 -0.795609 2.683901 -1.55874 2.12132 -2.12132 
C 1.55874 -2.683901 0.795609 -3 0 -3 
C -0.795609 -3 -1.55874 -2.683901 -2.12132 -2.12132 
C -2.683901 -1.55874 -3 -0.795609 -3 0 
C -3 0.795609 -2.683901 1.55874 -2.12132 2.12132 
C -1.55874 2.683901 -0.795609 3 0 3 
z
" style="stroke: #8b6ee8"/>
    </defs>
    <g clip-path="url(#p44c43e86bb)">
     <use xlink:href="#m3499cf21ec" x="66.236783" y="176.126019" style="fill: #8b6ee8; stroke: #8b6ee8"/>
     <use xlink:href="#m3499cf21ec" x="106.846647" y="141.250201" style="fill: #8b6ee8; stroke: #8b6ee8"/>
     <use xlink:href="#m3499cf21ec" x="147.456511" y="141.250201" style="fill: #8b6ee8; stroke: #8b6ee8"/>
    </g>
   </g>
   <g id="line2d_20">
    <path d="M 147.456511 141.250201 
L 188.066375 141.250201 
L 228.67624 141.250201 
L 269.286104 141.250201 
L 309.895968 141.250201 
L 350.505833 141.250201 
L 391.115697 141.250201 
L 431.725561 141.250201 
" clip-path="url(#p44c43e86bb)" style="fill: none; stroke-dasharray: 5.55,2.4; stroke-dashoffset: 0; stroke: #8b6ee8; stroke-opacity: 0.6; stroke-width: 1.5"/>
    <defs>
     <path id="m91d3ee4044" d="M 0 3 
C 0.795609 3 1.55874 2.683901 2.12132 2.12132 
C 2.683901 1.55874 3 0.795609 3 0 
C 3 -0.795609 2.683901 -1.55874 2.12132 -2.12132 
C 1.55874 -2.683901 0.795609 -3 0 -3 
C -0.795609 -3 -1.55874 -2.683901 -2.12132 -2.12132 
C -2.683901 -1.55874 -3 -0.795609 -3 0 
C -3 0.795609 -2.683901 1.55874 -2.12132 2.12132 
C -1.55874 2.683901 -0.795609 3 0 3 
z
" style="stroke: #8b6ee8; stroke-opacity: 0.6"/>
    </defs>
    <g clip-path="url(#p44c43e86bb)">
     <use xlink:href="#m91d3ee4044" x="147.456511" y="141.250201" style="fill: #8b6ee8; fill-opacity: 0.6; stroke: #8b6ee8; stroke-opacity: 0.6"/>
     <use xlink:href="#m91d3ee4044" x="188.066375" y="141.250201" style="fill: #8b6ee8; fill-opacity: 0.6; stroke: #8b6ee8; stroke-opacity: 0.6"/>
     <use xlink:href="#m91d3ee4044" x="228.67624" y="141.250201" style="fill: #8b6ee8; fill-opacity: 0.6; stroke: #8b6ee8; stroke-opacity: 0.6"/>
     <use xlink:href="#m91d3ee4044" x="269.286104" y="141.250201" style="fill: #8b6ee8; fill-opacity: 0.6; stroke: #8b6ee8; stroke-opacity: 0.6"/>
     <use xlink:href="#m91d3ee4044" x="309.895968" y="141.250201" style="fill: #8b6ee8; fill-opacity: 0.6; stroke: #8b6ee8; stroke-opacity: 0.6"/>
     <use xlink:href="#m91d3ee4044" x="350.505833" y="141.250201" style="fill: #8b6ee8; fill-opacity: 0.6; stroke: #8b6ee8; stroke-opacity: 0.6"/>
     <use xlink:href="#m91d3ee4044" x="391.115697" y="141.250201" style="fill: #8b6ee8; fill-opacity: 0.6; stroke: #8b6ee8; stroke-opacity: 0.6"/>
     <use xlink:href="#m91d3ee4044" x="431.725561" y="141.250201" style="fill: #8b6ee8; fill-opacity: 0.6; stroke: #8b6ee8; stroke-opacity: 0.6"/>
    </g>
   </g>
   <g id="line2d_21">
    <path d="M 66.236783 176.126019 
L 106.846647 176.126019 
L 147.456511 141.250201 
" clip-path="url(#p44c43e86bb)" style="fill: none; stroke: #5a4a9e; stroke-width: 1.5; stroke-linecap: square"/>
    <defs>
     <path id="m8e4f30b015" d="M 0 3 
C 0.795609 3 1.55874 2.683901 2.12132 2.12132 
C 2.683901 1.55874 3 0.795609 3 0 
C 3 -0.795609 2.683901 -1.55874 2.12132 -2.12132 
C 1.55874 -2.683901 0.795609 -3 0 -3 
C -0.795609 -3 -1.55874 -2.683901 -2.12132 -2.12132 
C -2.683901 -1.55874 -3 -0.795609 -3 0 
C -3 0.795609 -2.683901 1.55874 -2.12132 2.12132 
C -1.55874 2.683901 -0.795609 3 0 3 
z
" style="stroke: #5a4a9e"/>
    </defs>
    <g clip-path="url(#p44c43e86bb)">
     <use xlink:href="#m8e4f30b015" x="66.236783" y="176.126019" style="fill: #5a4a9e; stroke: #5a4a9e"/>
     <use xlink:href="#m8e4f30b015" x="106.846647" y="176.126019" style="fill: #5a4a9e; stroke: #5a4a9e"/>
     <use xlink:href="#m8e4f30b015" x="147.456511" y="141.250201" style="fill: #5a4a9e; stroke: #5a4a9e"/>
    </g>
   </g>
   <g id="line2d_22">
    <path d="M 147.456511 141.250201 
L 188.066375 141.250201 
L 228.67624 106.374382 
L 269.286104 106.374382 
L 309.895968 106.374382 
L 350.505833 106.374382 
L 391.115697 106.374382 
L 431.725561 106.374382 
" clip-path="url(#p44c43e86bb)" style="fill: none; stroke-dasharray: 5.55,2.4; stroke-dashoffset: 0; stroke: #5a4a9e; stroke-opacity: 0.6; stroke-width: 1.5"/>
    <defs>
     <path id="mb7322b12dd" d="M 0 3 
C 0.795609 3 1.55874 2.683901 2.12132 2.12132 
C 2.683901 1.55874 3 0.795609 3 0 
C 3 -0.795609 2.683901 -1.55874 2.12132 -2.12132 
C 1.55874 -2.683901 0.795609 -3 0 -3 
C -0.795609 -3 -1.55874 -2.683901 -2.12132 -2.12132 
C -2.683901 -1.55874 -3 -0.795609 -3 0 
C -3 0.795609 -2.683901 1.55874 -2.12132 2.12132 
C -1.55874 2.683901 -0.795609 3 0 3 
z
" style="stroke: #5a4a9e; stroke-opacity: 0.6"/>
    </defs>
    <g clip-path="url(#p44c43e86bb)">
     <use xlink:href="#mb7322b12dd" x="147.456511" y="141.250201" style="fill: #5a4a9e; fill-opacity: 0.6; stroke: #5a4a9e; stroke-opacity: 0.6"/>
     <use xlink:href="#mb7322b12dd" x="188.066375" y="141.250201" style="fill: #5a4a9e; fill-opacity: 0.6; stroke: #5a4a9e; stroke-opacity: 0.6"/>
     <use xlink:href="#mb7322b12dd" x="228.67624" y="106.374382" style="fill: #5a4a9e; fill-opacity: 0.6; stroke: #5a4a9e; stroke-opacity: 0.6"/>
     <use xlink:href="#mb7322b12dd" x="269.286104" y="106.374382" style="fill: #5a4a9e; fill-opacity: 0.6; stroke: #5a4a9e; stroke-opacity: 0.6"/>
     <use xlink:href="#mb7322b12dd" x="309.895968" y="106.374382" style="fill: #5a4a9e; fill-opacity: 0.6; stroke: #5a4a9e; stroke-opacity: 0.6"/>
     <use xlink:href="#mb7322b12dd" x="350.505833" y="106.374382" style="fill: #5a4a9e; fill-opacity: 0.6; stroke: #5a4a9e; stroke-opacity: 0.6"/>
     <use xlink:href="#mb7322b12dd" x="391.115697" y="106.374382" style="fill: #5a4a9e; fill-opacity: 0.6; stroke: #5a4a9e; stroke-opacity: 0.6"/>
     <use xlink:href="#mb7322b12dd" x="431.725561" y="106.374382" style="fill: #5a4a9e; fill-opacity: 0.6; stroke: #5a4a9e; stroke-opacity: 0.6"/>
    </g>
   </g>
   <g id="line2d_23">
    <path d="M 147.456511 245.877656 
L 147.456511 26.16 
" clip-path="url(#p44c43e86bb)" style="fill: none; stroke-dasharray: 1,1.65; stroke-dashoffset: 0; stroke: #888888"/>
   </g>
   <g id="patch_3">
    <path d="M 47.962344 245.877656 
L 47.962344 26.16 
" style="fill: none; stroke: #000000; stroke-width: 0.8; stroke-linejoin: miter; stroke-linecap: square"/>
   </g>
   <g id="patch_4">
    <path d="M 450 245.877656 
L 450 26.16 
" style="fill: none; stroke: #000000; stroke-width: 0.8; stroke-linejoin: miter; stroke-linecap: square"/>
   </g>
   <g id="patch_5">
    <path d="M 47.962344 245.877656 
L 450 245.877656 
" style="fill: none; stroke: #000000; stroke-width: 0.8; stroke-linejoin: miter; stroke-linecap: square"/>
   </g>
   <g id="patch_6">
    <path d="M 47.962344 26.16 
L 450 26.16 
" style="fill: none; stroke: #000000; stroke-width: 0.8; stroke-linejoin: miter; stroke-linecap: square"/>
   </g>
   <g id="text_19">
    <!-- recall@m — solid: measured (re-run), dashed: judge ranking only -->
    <g transform="translate(52.650859 20.16) scale(0.12 -0.12)">
     <defs>
      <path id="DejaVuSans-af6" d="M 313 1978 
L 6088 1978 
L 6088 1528 
L 313 1528 
L 313 1978 
z
" transform="scale(0.015625)"/>
      <path id="DejaVuSans-47" d="M 2906 2969 
L 2906 4863 
L 3481 4863 
L 3481 0 
L 2906 0 
L 2906 525 
Q 2725 213 2448 61 
Q 2172 -91 1784 -91 
Q 1150 -91 751 415 
Q 353 922 353 1747 
Q 353 2572 751 3078 
Q 1150 3584 1784 3584 
Q 2172 3584 2448 3432 
Q 2725 3281 2906 2969 
z
M 947 1747 
Q 947 1113 1208 752 
Q 1469 391 1925 391 
Q 2381 391 2643 752 
Q 2906 1113 2906 1747 
Q 2906 2381 2643 2742 
Q 2381 3103 1925 3103 
Q 1469 3103 1208 2742 
Q 947 2381 947 1747 
z
" transform="scale(0.015625)"/>
      <path id="DejaVuSans-1d" d="M 750 794 
L 1409 794 
L 1409 0 
L 750 0 
L 750 794 
z
M 750 3309 
L 1409 3309 
L 1409 2516 
L 750 2516 
L 750 3309 
z
" transform="scale(0.015625)"/>
      <path id="DejaVuSans-58" d="M 544 1381 
L 544 3500 
L 1119 3500 
L 1119 1403 
Q 1119 906 1312 657 
Q 1506 409 1894 409 
Q 2359 409 2629 706 
Q 2900 1003 2900 1516 
L 2900 3500 
L 3475 3500 
L 3475 0 
L 2900 0 
L 2900 538 
Q 2691 219 2414 64 
Q 2138 -91 1772 -91 
Q 1169 -91 856 284 
Q 544 659 544 1381 
z
M 1991 3584 
L 1991 3584 
z
" transform="scale(0.015625)"/>
      <path id="DejaVuSans-10" d="M 313 2009 
L 1997 2009 
L 1997 1497 
L 313 1497 
L 313 2009 
z
" transform="scale(0.015625)"/>
      <path id="DejaVuSans-51" d="M 3513 2113 
L 3513 0 
L 2938 0 
L 2938 2094 
Q 2938 2591 2744 2837 
Q 2550 3084 2163 3084 
Q 1697 3084 1428 2787 
Q 1159 2491 1159 1978 
L 1159 0 
L 581 0 
L 581 3500 
L 1159 3500 
L 1159 2956 
Q 1366 3272 1645 3428 
Q 1925 3584 2291 3584 
Q 2894 3584 3203 3211 
Q 3513 2838 3513 2113 
z
" transform="scale(0.015625)"/>
      <path id="DejaVuSans-f" d="M 750 794 
L 1409 794 
L 1409 256 
L 897 -744 
L 494 -744 
L 750 256 
L 750 794 
z
" transform="scale(0.015625)"/>
      <path id="DejaVuSans-4d" d="M 603 3500 
L 1178 3500 
L 1178 -63 
Q 1178 -731 923 -1031 
Q 669 -1331 103 -1331 
L -116 -1331 
L -116 -844 
L 38 -844 
Q 366 -844 484 -692 
Q 603 -541 603 -63 
L 603 3500 
z
M 603 4863 
L 1178 4863 
L 1178 4134 
L 603 4134 
L 603 4863 
z
" transform="scale(0.015625)"/>
      <path id="DejaVuSans-4a" d="M 2906 1791 
Q 2906 2416 2648 2759 
Q 2391 3103 1925 3103 
Q 1463 3103 1205 2759 
Q 947 2416 947 1791 
Q 947 1169 1205 825 
Q 1463 481 1925 481 
Q 2391 481 2648 825 
Q 2906 1169 2906 1791 
z
M 3481 434 
Q 3481 -459 3084 -895 
Q 2688 -1331 1869 -1331 
Q 1566 -1331 1297 -1286 
Q 1028 -1241 775 -1147 
L 775 -588 
Q 1028 -725 1275 -790 
Q 1522 -856 1778 -856 
Q 2344 -856 2625 -561 
Q 2906 -266 2906 331 
L 2906 616 
Q 2728 306 2450 153 
Q 2172 0 1784 0 
Q 1141 0 747 490 
Q 353 981 353 1791 
Q 353 2603 747 3093 
Q 1141 3584 1784 3584 
Q 2172 3584 2450 3431 
Q 2728 3278 2906 2969 
L 2906 3500 
L 3481 3500 
L 3481 434 
z
" transform="scale(0.015625)"/>
      <path id="DejaVuSans-4e" d="M 581 4863 
L 1159 4863 
L 1159 1991 
L 2875 3500 
L 3609 3500 
L 1753 1863 
L 3688 0 
L 2938 0 
L 1159 1709 
L 1159 0 
L 581 0 
L 581 4863 
z
" transform="scale(0.015625)"/>
      <path id="DejaVuSans-5c" d="M 2059 -325 
Q 1816 -950 1584 -1140 
Q 1353 -1331 966 -1331 
L 506 -1331 
L 506 -850 
L 844 -850 
Q 1081 -850 1212 -737 
Q 1344 -625 1503 -206 
L 1606 56 
L 191 3500 
L 800 3500 
L 1894 763 
L 2988 3500 
L 3597 3500 
L 2059 -325 
z
" transform="scale(0.015625)"/>
     </defs>
     <use xlink:href="#DejaVuSans-55"/>
     <use xlink:href="#DejaVuSans-48" transform="translate(38.90625 0)"/>
     <use xlink:href="#DejaVuSans-46" transform="translate(100.4375 0)"/>
     <use xlink:href="#DejaVuSans-44" transform="translate(155.421875 0)"/>
     <use xlink:href="#DejaVuSans-4f" transform="translate(216.703125 0)"/>
     <use xlink:href="#DejaVuSans-4f" transform="translate(244.484375 0)"/>
     <use xlink:href="#DejaVuSans-23" transform="translate(272.265625 0)"/>
     <use xlink:href="#DejaVuSans-50" transform="translate(372.265625 0)"/>
     <use xlink:href="#DejaVuSans-3" transform="translate(469.671875 0)"/>
     <use xlink:href="#DejaVuSans-af6" transform="translate(501.453125 0)"/>
     <use xlink:href="#DejaVuSans-3" transform="translate(601.453125 0)"/>
     <use xlink:href="#DejaVuSans-56" transform="translate(633.234375 0)"/>
     <use xlink:href="#DejaVuSans-52" transform="translate(685.328125 0)"/>
     <use xlink:href="#DejaVuSans-4f" transform="translate(746.515625 0)"/>
     <use xlink:href="#DejaVuSans-4c" transform="translate(774.296875 0)"/>
     <use xlink:href="#DejaVuSans-47" transform="translate(802.078125 0)"/>
     <use xlink:href="#DejaVuSans-1d" transform="translate(865.5625 0)"/>
     <use xlink:href="#DejaVuSans-3" transform="translate(899.25 0)"/>
     <use xlink:href="#DejaVuSans-50" transform="translate(931.03125 0)"/>
     <use xlink:href="#DejaVuSans-48" transform="translate(1028.4375 0)"/>
     <use xlink:href="#DejaVuSans-44" transform="translate(1089.96875 0)"/>
     <use xlink:href="#DejaVuSans-56" transform="translate(1151.25 0)"/>
     <use xlink:href="#DejaVuSans-58" transform="translate(1203.34375 0)"/>
     <use xlink:href="#DejaVuSans-55" transform="translate(1266.71875 0)"/>
     <use xlink:href="#DejaVuSans-48" transform="translate(1305.625 0)"/>
     <use xlink:href="#DejaVuSans-47" transform="translate(1367.15625 0)"/>
     <use xlink:href="#DejaVuSans-3" transform="translate(1430.640625 0)"/>
     <use xlink:href="#DejaVuSans-b" transform="translate(1462.421875 0)"/>
     <use xlink:href="#DejaVuSans-55" transform="translate(1501.4375 0)"/>
     <use xlink:href="#DejaVuSans-48" transform="translate(1540.34375 0)"/>
     <use xlink:href="#DejaVuSans-10" transform="translate(1601.875 0)"/>
     <use xlink:href="#DejaVuSans-55" transform="translate(1637.953125 0)"/>
     <use xlink:href="#DejaVuSans-58" transform="translate(1679.0625 0)"/>
     <use xlink:href="#DejaVuSans-51" transform="translate(1742.4375 0)"/>
     <use xlink:href="#DejaVuSans-c" transform="translate(1805.8125 0)"/>
     <use xlink:href="#DejaVuSans-f" transform="translate(1844.828125 0)"/>
     <use xlink:href="#DejaVuSans-3" transform="translate(1876.609375 0)"/>
     <use xlink:href="#DejaVuSans-47" transform="translate(1908.390625 0)"/>
     <use xlink:href="#DejaVuSans-44" transform="translate(1971.875 0)"/>
     <use xlink:href="#DejaVuSans-56" transform="translate(2033.15625 0)"/>
     <use xlink:href="#DejaVuSans-4b" transform="translate(2085.25 0)"/>
     <use xlink:href="#DejaVuSans-48" transform="translate(2148.625 0)"/>
     <use xlink:href="#DejaVuSans-47" transform="translate(2210.15625 0)"/>
     <use xlink:href="#DejaVuSans-1d" transform="translate(2273.640625 0)"/>
     <use xlink:href="#DejaVuSans-3" transform="translate(2307.328125 0)"/>
     <use xlink:href="#DejaVuSans-4d" transform="translate(2339.109375 0)"/>
     <use xlink:href="#DejaVuSans-58" transform="translate(2366.890625 0)"/>
     <use xlink:href="#DejaVuSans-47" transform="translate(2430.265625 0)"/>
     <use xlink:href="#DejaVuSans-4a" transform="translate(2493.75 0)"/>
     <use xlink:href="#DejaVuSans-48" transform="translate(2557.234375 0)"/>
     <use xlink:href="#DejaVuSans-3" transform="translate(2618.765625 0)"/>
     <use xlink:href="#DejaVuSans-55" transform="translate(2650.546875 0)"/>
     <use xlink:href="#DejaVuSans-44" transform="translate(2691.65625 0)"/>
     <use xlink:href="#DejaVuSans-51" transform="translate(2752.9375 0)"/>
     <use xlink:href="#DejaVuSans-4e" transform="translate(2816.3125 0)"/>
     <use xlink:href="#DejaVuSans-4c" transform="translate(2874.21875 0)"/>
     <use xlink:href="#DejaVuSans-51" transform="translate(2902 0)"/>
     <use xlink:href="#DejaVuSans-4a" transform="translate(2965.375 0)"/>
     <use xlink:href="#DejaVuSans-3" transform="translate(3028.859375 0)"/>
     <use xlink:href="#DejaVuSans-52" transform="translate(3060.640625 0)"/>
     <use xlink:href="#DejaVuSans-51" transform="translate(3121.828125 0)"/>
     <use xlink:href="#DejaVuSans-4f" transform="translate(3185.203125 0)"/>
     <use xlink:href="#DejaVuSans-5c" transform="translate(3212.984375 0)"/>
    </g>
   </g>
   <g id="legend_1">
    <g id="patch_7">
     <path d="M 291.25 241.877656 
L 444.4 241.877656 
Q 446 241.877656 446 240.277656 
L 446 205.075781 
Q 446 203.475781 444.4 203.475781 
L 291.25 203.475781 
Q 289.65 203.475781 289.65 205.075781 
L 289.65 240.277656 
Q 289.65 241.877656 291.25 241.877656 
z
" style="fill: #ffffff; opacity: 0.8; stroke: #cccccc; stroke-linejoin: miter"/>
    </g>
    <g id="line2d_24">
     <path d="M 292.85 209.954531 
L 300.85 209.954531 
L 308.85 209.954531 
" style="fill: none; stroke: #d08a12; stroke-width: 1.5; stroke-linecap: square"/>
     <g>
      <use xlink:href="#mcbb0d20c68" x="300.85" y="209.954531" style="fill: #d08a12; stroke: #d08a12"/>
     </g>
    </g>
    <g id="text_20">
     <!-- bisect (measured) -->
     <g transform="translate(315.25 212.754531) scale(0.08 -0.08)">
      <defs>
       <path id="DejaVuSans-45" d="M 3116 1747 
Q 3116 2381 2855 2742 
Q 2594 3103 2138 3103 
Q 1681 3103 1420 2742 
Q 1159 2381 1159 1747 
Q 1159 1113 1420 752 
Q 1681 391 2138 391 
Q 2594 391 2855 752 
Q 3116 1113 3116 1747 
z
M 1159 2969 
Q 1341 3281 1617 3432 
Q 1894 3584 2278 3584 
Q 2916 3584 3314 3078 
Q 3713 2572 3713 1747 
Q 3713 922 3314 415 
Q 2916 -91 2278 -91 
Q 1894 -91 1617 61 
Q 1341 213 1159 525 
L 1159 0 
L 581 0 
L 581 4863 
L 1159 4863 
L 1159 2969 
z
" transform="scale(0.015625)"/>
      </defs>
      <use xlink:href="#DejaVuSans-45"/>
      <use xlink:href="#DejaVuSans-4c" transform="translate(63.484375 0)"/>
      <use xlink:href="#DejaVuSans-56" transform="translate(91.265625 0)"/>
      <use xlink:href="#DejaVuSans-48" transform="translate(143.359375 0)"/>
      <use xlink:href="#DejaVuSans-46" transform="translate(204.890625 0)"/>
      <use xlink:href="#DejaVuSans-57" transform="translate(259.875 0)"/>
      <use xlink:href="#DejaVuSans-3" transform="translate(299.078125 0)"/>
      <use xlink:href="#DejaVuSans-b" transform="translate(330.859375 0)"/>
      <use xlink:href="#DejaVuSans-50" transform="translate(369.875 0)"/>
      <use xlink:href="#DejaVuSans-48" transform="translate(467.28125 0)"/>
      <use xlink:href="#DejaVuSans-44" transform="translate(528.8125 0)"/>
      <use xlink:href="#DejaVuSans-56" transform="translate(590.09375 0)"/>
      <use xlink:href="#DejaVuSans-58" transform="translate(642.1875 0)"/>
      <use xlink:href="#DejaVuSans-55" transform="translate(705.5625 0)"/>
      <use xlink:href="#DejaVuSans-48" transform="translate(744.46875 0)"/>
      <use xlink:href="#DejaVuSans-47" transform="translate(806 0)"/>
      <use xlink:href="#DejaVuSans-c" transform="translate(869.484375 0)"/>
     </g>
    </g>
    <g id="line2d_25">
     <path d="M 292.85 221.955156 
L 300.85 221.955156 
L 308.85 221.955156 
" style="fill: none; stroke: #8b6ee8; stroke-width: 1.5; stroke-linecap: square"/>
     <g>
      <use xlink:href="#m3499cf21ec" x="300.85" y="221.955156" style="fill: #8b6ee8; stroke: #8b6ee8"/>
     </g>
    </g>
    <g id="text_21">
     <!-- judge_all_at_once (measured) -->
     <g transform="translate(315.25 224.755156) scale(0.08 -0.08)">
      <defs>
       <path id="DejaVuSans-42" d="M 3263 -1063 
L 3263 -1509 
L -63 -1509 
L -63 -1063 
L 3263 -1063 
z
" transform="scale(0.015625)"/>
      </defs>
      <use xlink:href="#DejaVuSans-4d"/>
      <use xlink:href="#DejaVuSans-58" transform="translate(27.78125 0)"/>
      <use xlink:href="#DejaVuSans-47" transform="translate(91.15625 0)"/>
      <use xlink:href="#DejaVuSans-4a" transform="translate(154.640625 0)"/>
      <use xlink:href="#DejaVuSans-48" transform="translate(218.125 0)"/>
      <use xlink:href="#DejaVuSans-42" transform="translate(279.65625 0)"/>
      <use xlink:href="#DejaVuSans-44" transform="translate(329.65625 0)"/>
      <use xlink:href="#DejaVuSans-4f" transform="translate(390.9375 0)"/>
      <use xlink:href="#DejaVuSans-4f" transform="translate(418.71875 0)"/>
      <use xlink:href="#DejaVuSans-42" transform="translate(446.5 0)"/>
      <use xlink:href="#DejaVuSans-44" transform="translate(496.5 0)"/>
      <use xlink:href="#DejaVuSans-57" transform="translate(557.78125 0)"/>
      <use xlink:href="#DejaVuSans-42" transform="translate(596.984375 0)"/>
      <use xlink:href="#DejaVuSans-52" transform="translate(646.984375 0)"/>
      <use xlink:href="#DejaVuSans-51" transform="translate(708.171875 0)"/>
      <use xlink:href="#DejaVuSans-46" transform="translate(771.546875 0)"/>
      <use xlink:href="#DejaVuSans-48" transform="translate(826.53125 0)"/>
      <use xlink:href="#DejaVuSans-3" transform="translate(888.0625 0)"/>
      <use xlink:href="#DejaVuSans-b" transform="translate(919.84375 0)"/>
      <use xlink:href="#DejaVuSans-50" transform="translate(958.859375 0)"/>
      <use xlink:href="#DejaVuSans-48" transform="translate(1056.265625 0)"/>
      <use xlink:href="#DejaVuSans-44" transform="translate(1117.796875 0)"/>
      <use xlink:href="#DejaVuSans-56" transform="translate(1179.078125 0)"/>
      <use xlink:href="#DejaVuSans-58" transform="translate(1231.171875 0)"/>
      <use xlink:href="#DejaVuSans-55" transform="translate(1294.546875 0)"/>
      <use xlink:href="#DejaVuSans-48" transform="translate(1333.453125 0)"/>
      <use xlink:href="#DejaVuSans-47" transform="translate(1394.984375 0)"/>
      <use xlink:href="#DejaVuSans-c" transform="translate(1458.46875 0)"/>
     </g>
    </g>
    <g id="line2d_26">
     <path d="M 292.85 233.955781 
L 300.85 233.955781 
L 308.85 233.955781 
" style="fill: none; stroke: #5a4a9e; stroke-width: 1.5; stroke-linecap: square"/>
     <g>
      <use xlink:href="#m8e4f30b015" x="300.85" y="233.955781" style="fill: #5a4a9e; stroke: #5a4a9e"/>
     </g>
    </g>
    <g id="text_22">
     <!-- judge_step_by_step (measured) -->
     <g transform="translate(315.25 236.755781) scale(0.08 -0.08)">
      <defs>
       <path id="DejaVuSans-53" d="M 1159 525 
L 1159 -1331 
L 581 -1331 
L 581 3500 
L 1159 3500 
L 1159 2969 
Q 1341 3281 1617 3432 
Q 1894 3584 2278 3584 
Q 2916 3584 3314 3078 
Q 3713 2572 3713 1747 
Q 3713 922 3314 415 
Q 2916 -91 2278 -91 
Q 1894 -91 1617 61 
Q 1341 213 1159 525 
z
M 3116 1747 
Q 3116 2381 2855 2742 
Q 2594 3103 2138 3103 
Q 1681 3103 1420 2742 
Q 1159 2381 1159 1747 
Q 1159 1113 1420 752 
Q 1681 391 2138 391 
Q 2594 391 2855 752 
Q 3116 1113 3116 1747 
z
" transform="scale(0.015625)"/>
      </defs>
      <use xlink:href="#DejaVuSans-4d"/>
      <use xlink:href="#DejaVuSans-58" transform="translate(27.78125 0)"/>
      <use xlink:href="#DejaVuSans-47" transform="translate(91.15625 0)"/>
      <use xlink:href="#DejaVuSans-4a" transform="translate(154.640625 0)"/>
      <use xlink:href="#DejaVuSans-48" transform="translate(218.125 0)"/>
      <use xlink:href="#DejaVuSans-42" transform="translate(279.65625 0)"/>
      <use xlink:href="#DejaVuSans-56" transform="translate(329.65625 0)"/>
      <use xlink:href="#DejaVuSans-57" transform="translate(381.75 0)"/>
      <use xlink:href="#DejaVuSans-48" transform="translate(420.953125 0)"/>
      <use xlink:href="#DejaVuSans-53" transform="translate(482.484375 0)"/>
      <use xlink:href="#DejaVuSans-42" transform="translate(545.96875 0)"/>
      <use xlink:href="#DejaVuSans-45" transform="translate(595.96875 0)"/>
      <use xlink:href="#DejaVuSans-5c" transform="translate(659.453125 0)"/>
      <use xlink:href="#DejaVuSans-42" transform="translate(718.640625 0)"/>
      <use xlink:href="#DejaVuSans-56" transform="translate(768.640625 0)"/>
      <use xlink:href="#DejaVuSans-57" transform="translate(820.734375 0)"/>
      <use xlink:href="#DejaVuSans-48" transform="translate(859.9375 0)"/>
      <use xlink:href="#DejaVuSans-53" transform="translate(921.46875 0)"/>
      <use xlink:href="#DejaVuSans-3" transform="translate(984.953125 0)"/>
      <use xlink:href="#DejaVuSans-b" transform="translate(1016.734375 0)"/>
      <use xlink:href="#DejaVuSans-50" transform="translate(1055.75 0)"/>
      <use xlink:href="#DejaVuSans-48" transform="translate(1153.15625 0)"/>
      <use xlink:href="#DejaVuSans-44" transform="translate(1214.6875 0)"/>
      <use xlink:href="#DejaVuSans-56" transform="translate(1275.96875 0)"/>
      <use xlink:href="#DejaVuSans-58" transform="translate(1328.0625 0)"/>
      <use xlink:href="#DejaVuSans-55" transform="translate(1391.4375 0)"/>
      <use xlink:href="#DejaVuSans-48" transform="translate(1430.34375 0)"/>
      <use xlink:href="#DejaVuSans-47" transform="translate(1491.875 0)"/>
      <use xlink:href="#DejaVuSans-c" transform="translate(1555.359375 0)"/>
     </g>
    </g>
   </g>
  </g>
 </g>
 <defs>
  <clipPath id="p44c43e86bb">
   <rect x="47.962344" y="26.16" width="402.037656" height="219.717656"/>
  </clipPath>
 </defs>
</svg>
